<svg xmlns="http://www.w3.org/2000/svg" viewBox="0 0 64 64"><g id="_05-cook" data-name="05-cook"><rect x="1" y="60" width="62" height="3" style="fill:#da684e"/><rect x="9" y="27" width="46" height="4" style="fill:#da684e"/><path d="M9,35v4H7.24a2,2,0,0,1-1.79-1.11L4,35Z" style="fill:#423e35"/><path d="M60,35l-1.45,2.89A2,2,0,0,1,56.76,39H55V35Z" style="fill:#423e35"/><path d="M9,31v4H2a1,1,0,0,1-1-1V32a1,1,0,0,1,1-1Z" style="fill:#a0968c"/><path d="M63,32v2a1,1,0,0,1-1,1H55V31h7A1,1,0,0,1,63,32Z" style="fill:#a0968c"/><path d="M55,53a4,4,0,0,1-3.52,3.97A3.994,3.994,0,0,0,52,55c0-2.21-1-6-2-6s-6,4.79-6,7a3.129,3.129,0,0,0,.14.96L44,57H35.46A3.989,3.989,0,0,0,36,55c0-2.21-3-6-4-6s-4,3.79-4,6a3.989,3.989,0,0,0,.54,2H20l-.14-.04A3.129,3.129,0,0,0,20,56c0-2.21-5-7-6-7s-2,3.79-2,6a3.994,3.994,0,0,0,.52,1.97A4,4,0,0,1,9,53V31H55V53Z" style="fill:#e8e4dc"/><path d="M3,60H3a2,2,0,0,0,2,2H59a2,2,0,0,0,2-2h2v3H1V60Z" style="fill:#85392b"/><path d="M62,33H58a1,1,0,0,1-1-1V31H55v4h7a1,1,0,0,0,1-1V32A1,1,0,0,1,62,33Z" style="fill:#80786a"/><path d="M55,35v4h1V38a2,2,0,0,1,2-2h1.5l.5-1Z" style="fill:#292721"/><path d="M2,33H6a1,1,0,0,0,1-1V31H9v4H2a1,1,0,0,1-1-1V32A1,1,0,0,0,2,33Z" style="fill:#80786a"/><path d="M9,35v4H8V38a2,2,0,0,0-2-2H4.5L4,35Z" style="fill:#292721"/><path d="M9,27h3a2,2,0,0,0,2,2H50a2,2,0,0,0,2-2h3v4H9Z" style="fill:#bd4c3d"/><path d="M38,55c-.677,0-1.346-.035-2.008-.095,0,.031.008.065.008.095a3.989,3.989,0,0,1-.54,2H44l.14-.04A3.129,3.129,0,0,1,44,56a2.692,2.692,0,0,1,.247-1Z" style="fill:#d6cec1"/><path d="M53,55H52a3.994,3.994,0,0,1-.52,1.97A4,4,0,0,0,55,53,2,2,0,0,1,53,55Z" style="fill:#d6cec1"/><path d="M16,31H9V53a4,4,0,0,0,3.52,3.97A3.994,3.994,0,0,1,12,55c0-2.21,1-6,2-6s6,4.79,6,7a3.129,3.129,0,0,1-.14.96L20,57h8.54A3.989,3.989,0,0,1,28,55a5.172,5.172,0,0,1,.6-2.107A22.091,22.091,0,0,1,18.236,42.669,6.011,6.011,0,0,1,23.619,34H55V31Z" style="fill:#d6cec1"/><path d="M51.48,56.97A4.007,4.007,0,0,1,48,59c-1.85,0-3.41-.56-3.86-2.04A3.129,3.129,0,0,1,44,56c0-2.21,5-7,6-7s2,3.79,2,6A3.994,3.994,0,0,1,51.48,56.97Z" style="fill:#4c8db0"/><path d="M35.46,57A4,4,0,0,1,28,55c0-2.21,3-6,4-6s4,3.79,4,6A3.989,3.989,0,0,1,35.46,57Z" style="fill:#4c8db0"/><path d="M12.52,56.97A3.994,3.994,0,0,1,12,55c0-2.21,1-6,2-6s6,4.79,6,7a3.129,3.129,0,0,1-.14.96C19.41,58.44,17.85,59,16,59A4.007,4.007,0,0,1,12.52,56.97Z" style="fill:#4c8db0"/><rect x="14" y="27" width="30" height="2" rx="1" ry="1" style="fill:#ea735c"/><rect x="45" y="27" width="5" height="2" rx="1" ry="1" style="fill:#ea735c"/><path d="M53,40a2,2,0,0,0-2,2v8.154a12.058,12.058,0,0,1,.714,2.366A1.99,1.99,0,0,0,55,51V42A2,2,0,0,0,53,40Z" style="fill:#f7f3eb"/><rect x="51" y="34" width="4" height="5" rx="2" ry="2" style="fill:#f7f3eb"/><path d="M34.163,57.8a2.549,2.549,0,0,1-4.326,0,2.325,2.325,0,0,1-.337-1.2c0-1.326,1.875-3.6,2.5-3.6s2.5,2.274,2.5,3.6A2.325,2.325,0,0,1,34.163,57.8Z" style="fill:#65adaf"/><path d="M50.153,57.8a2.54,2.54,0,0,1-4.316,0,2.325,2.325,0,0,1-.337-1.2c0-1.326,3.867-3.6,4.491-3.6s.5,2.274.5,3.6A2.325,2.325,0,0,1,50.153,57.8Z" style="fill:#65adaf"/><path d="M13.847,57.8a2.54,2.54,0,0,0,4.316,0,2.325,2.325,0,0,0,.337-1.2c0-1.326-3.867-3.6-4.491-3.6s-.5,2.274-.5,3.6A2.325,2.325,0,0,0,13.847,57.8Z" style="fill:#65adaf"/><path d="M32,23v1H24V23a4,4,0,0,1,8,0Z" style="fill:#e84655"/><path d="M47.76,3.238a4.264,4.264,0,0,1,0,6.012l-.75.75L41,3.988l.75-.75A4.265,4.265,0,0,1,47.76,3.238Z" style="fill:#ffd669"/><path d="M37,20c0-6,6-6,6-6C43,20,37,20,37,20Z" style="fill:#869f3c"/><path d="M35,7s-6,0-6-6C29,1,35,1,35,7Z" style="fill:#869f3c"/><path d="M62.17,1.31a1.849,1.849,0,0,1,.58,2.47L52.07,22.01c.33.05,1.93.52,1.93,4.99H41c.83-5,5.81-5.83,7.46-5.97L59.53,1.93A1.864,1.864,0,0,1,62.17,1.31Z" style="fill:#da684e"/><path d="M4.412,4.412a2,2,0,1,1,2.829,0L9.92,7.091a3.211,3.211,0,0,0-1.979.85,3.211,3.211,0,0,0-.85,1.979L4.412,7.241a2,2,0,1,1,0-2.829Z" style="fill:#ede9e1"/><path d="M9.92,7.091c2.97-.31,7.478,1.84,9.318,3.679a5.988,5.988,0,0,1-8.468,8.468C8.931,17.4,6.781,12.89,7.091,9.92a3.211,3.211,0,0,1,.85-1.979A3.211,3.211,0,0,1,9.92,7.091Z" style="fill:#fad5c3"/><path d="M20.238,16.238a5.969,5.969,0,0,1-8.468,0,15.079,15.079,0,0,1-3.7-8.406c-.043.038-.092.068-.133.109a3.211,3.211,0,0,0-.85,1.979c-.31,2.97,1.84,7.478,3.679,9.318a5.972,5.972,0,0,0,10.2-3.888A6.022,6.022,0,0,1,20.238,16.238Z" style="fill:#f3c0a5"/><path d="M62.17,1.309a1.841,1.841,0,0,0-1.147-.3,1.991,1.991,0,0,1-.072,1.827L50.524,21.082a1,1,0,0,0,.421,1.391l.372.185A1.236,1.236,0,0,1,50.764,25H41.652A6.912,6.912,0,0,0,41,27H54c0-4.47-1.6-4.94-1.93-4.99L62.75,3.779A1.849,1.849,0,0,0,62.17,1.309Z" style="fill:#bd4c3d"/><path d="M8.415,5.585l-.708.708a1,1,0,0,1-1.414,0L4.412,4.412a2,2,0,1,0,0,2.829L7.091,9.92a3.211,3.211,0,0,1,.85-1.979,3.211,3.211,0,0,1,1.979-.85Z" style="fill:#ded9d0"/><path d="M11.4,8.056A1.787,1.787,0,0,0,10.28,8.5a1.261,1.261,0,0,0-.176,1.31,2.972,2.972,0,0,0,.862,1.087c1.049.918,2.3,1.6,3.33,2.533a15.983,15.983,0,0,0,2.413,2.165,2.465,2.465,0,0,0,1.59.387,2,2,0,0,0,1.434-1.1,2.877,2.877,0,0,0,.209-1.812,4.72,4.72,0,0,0-1.464-2.528A9,9,0,0,0,11.4,8.056Z" style="fill:#fce2d1"/><path d="M35,7,29,1C29,7,35,7,35,7Z" style="fill:#658f41"/><path d="M43,14l-6,6S43,20,43,14Z" style="fill:#658f41"/><ellipse cx="19.016" cy="12.75" rx="0.413" ry="0.574" style="fill:#fff3eb"/><ellipse cx="14.016" cy="16.75" rx="0.413" ry="0.574" transform="translate(-7.738 14.81) rotate(-44.98)" style="fill:#f3c0a5"/><ellipse cx="10.016" cy="15.75" rx="0.413" ry="0.574" style="fill:#f3ac86"/><ellipse cx="17.271" cy="11.25" rx="0.825" ry="1.148" transform="translate(-2.895 15.514) rotate(-45.02)" style="fill:#fff3eb"/><ellipse cx="12.271" cy="18.25" rx="0.825" ry="1.148" transform="translate(-9.312 14.029) rotate(-45.02)" style="fill:#f3ac86"/><ellipse cx="12.271" cy="15.25" rx="0.825" ry="1.148" transform="translate(-7.19 13.15) rotate(-45.02)" style="fill:#f3c0a5"/><ellipse cx="28.016" cy="22.75" rx="0.413" ry="0.574" style="fill:#ff858f"/><ellipse cx="26.016" cy="22.75" rx="0.413" ry="0.574" transform="matrix(0.849, -0.529, 0.529, 0.849, -8.096, 17.204)" style="fill:#ff858f"/><ellipse cx="27.016" cy="21.75" rx="0.413" ry="0.574" transform="matrix(0.849, -0.529, 0.529, 0.849, -7.416, 17.581)" style="fill:#ff858f"/><ellipse cx="30.016" cy="22.75" rx="0.574" ry="0.413" transform="translate(-5.167 36.191) rotate(-58.067)" style="fill:#ff858f"/><ellipse cx="29.016" cy="21.75" rx="0.574" ry="0.413" transform="translate(-4.79 34.871) rotate(-58.067)" style="fill:#ff858f"/><path d="M4.29,8.529l1.8,1.8C6,13.658,8.12,18.01,10.061,19.952a6.994,6.994,0,0,0,9.89-9.891C18.011,8.12,13.658,6,10.334,6.1l-1.8-1.8A3.005,3.005,0,0,0,7.943.877,3.071,3.071,0,0,0,3.7.878a2.985,2.985,0,0,0-.872,1.953,3,3,0,1,0,1.458,5.7Zm14.247,2.946a4.994,4.994,0,0,1-7.062,7.063c-2.223-2.224-4.541-8.173-2.826-9.889S16.313,9.252,18.537,11.475ZM2.292,5.118a1,1,0,0,1,1.412,0A1,1,0,1,0,5.118,3.7a1,1,0,0,1,0-1.412,1.023,1.023,0,0,1,1.411,0,1,1,0,0,1,0,1.412,1,1,0,0,0,0,1.414L8.058,6.647A3.078,3.078,0,0,0,6.647,8.058L5.118,6.529a1,1,0,0,0-1.414,0A1,1,0,0,1,2.292,5.118Z"/><path d="M37,21c2.421,0,7-1.463,7-7a1,1,0,0,0-1-1c-2.421,0-7,1.463-7,7A1,1,0,0,0,37,21Zm4.909-5.877a4.509,4.509,0,0,1-3.818,3.754A4.508,4.508,0,0,1,41.909,15.123Z"/><path d="M35,8a1,1,0,0,0,1-1c0-5.537-4.579-7-7-7a1,1,0,0,0-1,1C28,6.537,32.579,8,35,8ZM33.907,5.871a4.545,4.545,0,0,1-3.814-3.742A4.545,4.545,0,0,1,33.907,5.871Z"/><path d="M24,25h8a1,1,0,0,0,1-1V23a5,5,0,0,0-10,0v1A1,1,0,0,0,24,25Zm4-5a3,3,0,0,1,3,3H25A3,3,0,0,1,28,20Z"/><path d="M46.3,10.707a1,1,0,0,0,1.414,0l.75-.75a5.246,5.246,0,1,0-7.419-7.42l-.751.751a1,1,0,0,0,0,1.414ZM42.458,3.951a3.325,3.325,0,0,1,4.591,0,3.246,3.246,0,0,1,0,4.591l-.043.043L42.414,4Z"/><rect x="24" y="9" width="2" height="2"/><rect x="27" y="9" width="2" height="2"/><rect x="30" y="9" width="2" height="2"/><rect x="24" y="13" width="2" height="2"/><rect x="27" y="13" width="2" height="2"/><rect x="30" y="13" width="2" height="2"/><path d="M63,59H60v2h2v1H2V61H4V59H1a1,1,0,0,0-1,1v3a1,1,0,0,0,1,1H63a1,1,0,0,0,1-1V60A1,1,0,0,0,63,59Z"/><path d="M62,30H58v2h4v2H56V27a1,1,0,0,0-1-1h-.031c-.146-2.483-.828-3.744-1.522-4.374L63.61,4.287A2.848,2.848,0,0,0,62.726.478h0a2.862,2.862,0,0,0-4.058.946L47.849,20.092C45.83,20.359,41.421,21.466,40.2,26H9a1,1,0,0,0-1,1v7H2V32H6V30H2a2,2,0,0,0-2,2v2a2,2,0,0,0,2,2H3.382l1.171,2.342A2.983,2.983,0,0,0,7.236,40H8V53a5,5,0,0,0,3.924,4.876A5,5,0,0,0,13.031,59H6v2H58V59H50.969a5,5,0,0,0,1.107-1.124A5,5,0,0,0,56,53V40h.764a2.983,2.983,0,0,0,2.683-1.658L60.618,36H62a2,2,0,0,0,2-2V32A2,2,0,0,0,62,30ZM48.544,22.027a1,1,0,0,0,.781-.5L60.4,2.427a.856.856,0,0,1,1.487.848L51.2,21.5a1.012,1.012,0,0,0-.018.9,1.071,1.071,0,0,0,.724.589c.249.061.906.754,1.059,3.006H42.3C43.49,22.817,46.98,22.16,48.544,22.027ZM7.236,38a1,1,0,0,1-.894-.553L5.618,36H8v2ZM13,55a12.1,12.1,0,0,1,1.131-4.886C15.471,50.91,19,54.6,19,56c0,.495,0,2-3,2A3,3,0,0,1,13,55Zm7.466,3h7.56a5.012,5.012,0,0,0,1,1H19.579A3.433,3.433,0,0,0,20.466,58ZM32,58a3,3,0,0,1-3-3c0-1.609,2.151-4.411,3-4.948.849.537,3,3.339,3,4.948A3,3,0,0,1,32,58Zm2.969,1a5.012,5.012,0,0,0,1-1h7.56a3.433,3.433,0,0,0,.887,1ZM48,58c-3,0-3-1.505-3-2,0-1.4,3.529-5.09,4.869-5.886A12.1,12.1,0,0,1,51,55,3,3,0,0,1,48,58Zm6-5a2.982,2.982,0,0,1-1.024,2.24c0-.081.024-.158.024-.24,0-.918-.56-7-3-7-1.653,0-7,5.29-7,8H36.9a5,5,0,0,0,.1-1c0-2.486-3.225-7-5-7s-5,4.514-5,7a5,5,0,0,0,.1,1H21c0-2.71-5.347-8-7-8-2.44,0-3,6.082-3,7,0,.082.02.159.024.24A2.982,2.982,0,0,1,10,53V32h2V30H10V28H54v2H18v2H54V53Zm3.658-15.553a1,1,0,0,1-.894.553H56V36h2.382Z"/><rect x="14" y="30" width="2" height="2"/></g></svg>